<svg width="2043" height="235" viewBox="0 0 2043 235" fill="none" xmlns="http://www.w3.org/2000/svg">
<path d="M456.258 73.271H436.272V16.8925H456.423C462.094 16.8925 466.976 18.0212 471.069 20.2785C475.161 22.5175 478.309 25.7383 480.511 29.941C482.731 34.1437 483.842 39.1723 483.842 45.0267C483.842 50.8994 482.731 55.9463 480.511 60.1674C478.309 64.3884 475.143 67.6276 471.013 69.885C466.903 72.1423 461.984 73.271 456.258 73.271ZM448.192 63.0579H455.763C459.286 63.0579 462.25 62.4339 464.654 61.186C467.077 59.9196 468.894 57.9651 470.105 55.3224C471.335 52.6613 471.949 49.2294 471.949 45.0267C471.949 40.8607 471.335 37.4563 470.105 34.8136C468.894 32.1708 467.086 30.2255 464.682 28.9775C462.278 27.7296 459.314 27.1056 455.79 27.1056H448.192V63.0579ZM511.721 74.0969C507.372 74.0969 503.628 73.2159 500.49 71.4541C497.37 69.6739 494.966 67.1597 493.277 63.9113C491.589 60.6446 490.745 56.7814 490.745 52.3218C490.745 47.9722 491.589 44.1549 493.277 40.8699C494.966 37.5848 497.342 35.0246 500.407 33.1894C503.49 31.3542 507.106 30.4365 511.253 30.4365C514.043 30.4365 516.64 30.8862 519.044 31.7854C521.466 32.6664 523.577 33.9969 525.376 35.7771C527.192 37.5573 528.606 39.7963 529.615 42.4941C530.624 45.1735 531.129 48.3118 531.129 51.9088V55.1297H495.424V47.8621H520.09C520.09 46.1737 519.723 44.678 518.989 43.375C518.255 42.072 517.236 41.0534 515.933 40.3193C514.649 39.5669 513.153 39.1906 511.446 39.1906C509.666 39.1906 508.088 39.6036 506.711 40.4294C505.353 41.2369 504.289 42.3289 503.518 43.7053C502.747 45.0634 502.352 46.5775 502.334 48.2475V55.1572C502.334 57.2494 502.719 59.0571 503.49 60.5803C504.279 62.1036 505.39 63.2781 506.821 64.104C508.253 64.9298 509.95 65.3428 511.914 65.3428C513.217 65.3428 514.41 65.1592 515.493 64.7922C516.576 64.4251 517.502 63.8746 518.273 63.1405C519.044 62.4064 519.631 61.5071 520.035 60.4427L530.881 61.1584C530.331 63.7645 529.202 66.0402 527.495 67.9855C525.807 69.9125 523.623 71.4174 520.943 72.5002C518.282 73.5646 515.208 74.0969 511.721 74.0969ZM561.521 30.9871V39.7963H535.423V30.9871H561.521ZM541.397 73.271V27.9314C541.397 24.8666 541.994 22.3248 543.186 20.306C544.398 18.2873 546.049 16.7732 548.142 15.7638C550.234 14.7544 552.61 14.2497 555.272 14.2497C557.07 14.2497 558.713 14.3874 560.199 14.6627C561.704 14.938 562.824 15.1857 563.558 15.4059L561.465 24.2151C561.007 24.0683 560.438 23.9306 559.759 23.8022C559.098 23.6737 558.419 23.6095 557.722 23.6095C555.996 23.6095 554.794 24.0132 554.115 24.8207C553.436 25.6099 553.097 26.7202 553.097 28.1517V73.271H541.397ZM568.685 73.271V30.9871H580.412V73.271H568.685ZM574.576 25.5365C572.832 25.5365 571.337 24.9584 570.089 23.8022C568.859 22.6276 568.244 21.2236 568.244 19.5903C568.244 17.9753 568.859 16.5897 570.089 15.4335C571.337 14.2589 572.832 13.6716 574.576 13.6716C576.319 13.6716 577.806 14.2589 579.036 15.4335C580.284 16.5897 580.908 17.9753 580.908 19.5903C580.908 21.2236 580.284 22.6276 579.036 23.8022C577.806 24.9584 576.319 25.5365 574.576 25.5365ZM627.954 73.271H607.968V16.8925H628.119C633.79 16.8925 638.672 18.0212 642.764 20.2785C646.857 22.5175 650.004 25.7383 652.207 29.941C654.427 34.1437 655.537 39.1723 655.537 45.0267C655.537 50.8994 654.427 55.9463 652.207 60.1674C650.004 64.3884 646.838 67.6276 642.709 69.885C638.598 72.1423 633.68 73.271 627.954 73.271ZM619.888 63.0579H627.458C630.982 63.0579 633.946 62.4339 636.35 61.186C638.773 59.9196 640.589 57.9651 641.801 55.3224C643.03 52.6613 643.645 49.2294 643.645 45.0267C643.645 40.8607 643.03 37.4563 641.801 34.8136C640.589 32.1708 638.782 30.2255 636.378 28.9775C633.973 27.7296 631.01 27.1056 627.486 27.1056H619.888V63.0579ZM664.147 73.271V30.9871H675.874V73.271H664.147ZM670.038 25.5365C668.295 25.5365 666.799 24.9584 665.551 23.8022C664.321 22.6276 663.707 21.2236 663.707 19.5903C663.707 17.9753 664.321 16.5897 665.551 15.4335C666.799 14.2589 668.295 13.6716 670.038 13.6716C671.782 13.6716 673.268 14.2589 674.498 15.4335C675.746 16.5897 676.37 17.9753 676.37 19.5903C676.37 21.2236 675.746 22.6276 674.498 23.8022C673.268 24.9584 671.782 25.5365 670.038 25.5365ZM704.318 90.0084C700.519 90.0084 697.262 89.4853 694.545 88.4392C691.848 87.4115 689.7 86.0075 688.104 84.2274C686.507 82.4472 685.47 80.4468 684.993 78.2261L695.839 76.7671C696.17 77.6113 696.693 78.4005 697.408 79.1346C698.124 79.8687 699.069 80.456 700.244 80.8964C701.437 81.3552 702.887 81.5846 704.593 81.5846C707.144 81.5846 709.246 80.9606 710.897 79.7127C712.567 78.4831 713.403 76.4184 713.403 73.5188V65.7832H712.907C712.393 66.9578 711.622 68.0681 710.595 69.1142C709.567 70.1603 708.245 71.0137 706.63 71.6743C705.015 72.335 703.088 72.6654 700.849 72.6654C697.675 72.6654 694.784 71.9313 692.178 70.4631C689.59 68.9765 687.526 66.71 685.984 63.6635C684.461 60.5987 683.699 56.7263 683.699 52.0465C683.699 47.2565 684.479 43.2557 686.039 40.044C687.599 36.8323 689.673 34.4282 692.261 32.8315C694.867 31.2349 697.72 30.4365 700.822 30.4365C703.189 30.4365 705.171 30.8403 706.768 31.6478C708.365 32.437 709.649 33.428 710.622 34.6209C711.613 35.7954 712.375 36.9516 712.907 38.0895H713.347V30.9871H724.992V73.6839C724.992 77.281 724.111 80.2908 722.349 82.7133C720.587 85.1358 718.147 86.9527 715.027 88.164C711.925 89.3936 708.356 90.0084 704.318 90.0084ZM704.566 63.8562C706.456 63.8562 708.053 63.3882 709.356 62.4523C710.677 61.4979 711.687 60.1399 712.384 58.378C713.1 56.5979 713.458 54.469 713.458 51.9914C713.458 49.5138 713.109 47.3666 712.411 45.5497C711.714 43.7145 710.705 42.2922 709.383 41.2828C708.062 40.2734 706.456 39.7687 704.566 39.7687C702.639 39.7687 701.015 40.2918 699.693 41.3379C698.372 42.3656 697.372 43.7971 696.693 45.6323C696.014 47.4676 695.674 49.5873 695.674 51.9914C695.674 54.4323 696.014 56.5428 696.693 58.323C697.39 60.0848 698.39 61.4521 699.693 62.4247C701.015 63.3791 702.639 63.8562 704.566 63.8562ZM753.594 74.0969C749.245 74.0969 745.501 73.2159 742.363 71.4541C739.243 69.6739 736.838 67.1597 735.15 63.9113C733.462 60.6446 732.617 56.7814 732.617 52.3218C732.617 47.9722 733.462 44.1549 735.15 40.8699C736.838 37.5848 739.215 35.0246 742.28 33.1894C745.363 31.3542 748.979 30.4365 753.126 30.4365C755.916 30.4365 758.513 30.8862 760.917 31.7854C763.339 32.6664 765.45 33.9969 767.248 35.7771C769.065 37.5573 770.478 39.7963 771.488 42.4941C772.497 45.1735 773.002 48.3118 773.002 51.9088V55.1297H737.297V47.8621H761.963C761.963 46.1737 761.596 44.678 760.862 43.375C760.128 42.072 759.109 41.0534 757.806 40.3193C756.521 39.5669 755.026 39.1906 753.319 39.1906C751.539 39.1906 749.96 39.6036 748.584 40.4294C747.226 41.2369 746.161 42.3289 745.391 43.7053C744.62 45.0634 744.225 46.5775 744.207 48.2475V55.1572C744.207 57.2494 744.592 59.0571 745.363 60.5803C746.152 62.1036 747.263 63.2781 748.694 64.104C750.126 64.9298 751.823 65.3428 753.787 65.3428C755.09 65.3428 756.283 65.1592 757.366 64.7922C758.448 64.4251 759.375 63.8746 760.146 63.1405C760.917 62.4064 761.504 61.5071 761.908 60.4427L772.754 61.1584C772.204 63.7645 771.075 66.0402 769.368 67.9855C767.68 69.9125 765.496 71.4174 762.816 72.5002C760.155 73.5646 757.081 74.0969 753.594 74.0969ZM815.836 43.0446L805.1 43.7053C804.917 42.7877 804.522 41.9618 803.916 41.2277C803.311 40.4753 802.512 39.8788 801.521 39.4384C800.549 38.9796 799.383 38.7502 798.025 38.7502C796.208 38.7502 794.676 39.1356 793.428 39.9064C792.18 40.6588 791.556 41.6682 791.556 42.9345C791.556 43.9439 791.96 44.7973 792.767 45.4947C793.575 46.1921 794.96 46.7518 796.924 47.1739L804.577 48.7155C808.688 49.5597 811.753 50.9178 813.772 52.7897C815.79 54.6617 816.8 57.1209 816.8 60.1674C816.8 62.9386 815.983 65.3703 814.35 67.4625C812.735 69.5546 810.514 71.188 807.688 72.3626C804.88 73.5188 801.641 74.0969 797.97 74.0969C792.373 74.0969 787.913 72.9315 784.591 70.6007C781.288 68.2516 779.352 65.0583 778.783 61.0208L790.317 60.4152C790.666 62.1219 791.51 63.4249 792.85 64.3242C794.19 65.2051 795.906 65.6456 797.998 65.6456C800.053 65.6456 801.705 65.251 802.953 64.4619C804.219 63.6543 804.862 62.6174 804.88 61.3511C804.862 60.2867 804.412 59.415 803.531 58.7359C802.65 58.0385 801.292 57.5063 799.457 57.1393L792.134 55.6802C788.005 54.8544 784.931 53.4229 782.912 51.3858C780.912 49.3487 779.911 46.7518 779.911 43.5952C779.911 40.879 780.646 38.5391 782.114 36.5754C783.6 34.6117 785.683 33.0976 788.363 32.0332C791.061 30.9688 794.217 30.4365 797.833 30.4365C803.173 30.4365 807.376 31.5652 810.441 33.8226C813.524 36.0799 815.322 39.1539 815.836 43.0446ZM846.675 30.9871V39.7963H821.211V30.9871H846.675ZM826.992 20.8566H838.719V60.2775C838.719 61.3603 838.885 62.2045 839.215 62.8101C839.545 63.3974 840.004 63.8103 840.591 64.0489C841.197 64.2875 841.894 64.4068 842.684 64.4068C843.234 64.4068 843.785 64.3609 844.335 64.2692C844.886 64.159 845.308 64.0765 845.602 64.0214L847.446 72.748C846.859 72.9315 846.033 73.1425 844.968 73.3811C843.904 73.638 842.61 73.794 841.087 73.8491C838.261 73.9592 835.783 73.583 833.654 72.7204C831.544 71.8579 829.901 70.5181 828.727 68.7013C827.552 66.8844 826.974 64.5903 826.992 61.8191V20.8566Z" fill="#FF812E"/>
<path d="M889.008 65.271V25.175H894.862V40.0739H895.215C895.554 39.4474 896.043 38.723 896.683 37.9008C897.322 37.0785 898.21 36.3606 899.346 35.7472C900.481 35.1207 901.982 34.8074 903.848 34.8074C906.276 34.8074 908.443 35.4209 910.348 36.6478C912.254 37.8747 913.748 39.6432 914.832 41.9534C915.928 44.2637 916.476 47.0438 916.476 50.2937C916.476 53.5437 915.935 56.3303 914.851 58.6536C913.768 60.9638 912.28 62.7454 910.388 63.9984C908.495 65.2384 906.335 65.8583 903.907 65.8583C902.08 65.8583 900.585 65.5516 899.424 64.9382C898.275 64.3247 897.375 63.6069 896.722 62.7846C896.069 61.9623 895.567 61.2314 895.215 60.5918H894.725V65.271H889.008ZM894.745 50.235C894.745 52.3494 895.051 54.2028 895.665 55.7952C896.278 57.3875 897.166 58.634 898.327 59.5346C899.489 60.4221 900.912 60.8659 902.595 60.8659C904.344 60.8659 905.806 60.4026 906.981 59.4759C908.156 58.5361 909.043 57.2635 909.644 55.6581C910.257 54.0527 910.564 52.245 910.564 50.235C910.564 48.2511 910.264 46.4695 909.663 44.8902C909.076 43.3109 908.188 42.0644 907.001 41.1507C905.826 40.2371 904.358 39.7803 902.595 39.7803C900.899 39.7803 899.463 40.2175 898.288 41.092C897.127 41.9665 896.246 43.1869 895.645 44.7531C895.045 46.3194 894.745 48.1467 894.745 50.235ZM925.727 76.548C924.853 76.548 924.056 76.4762 923.339 76.3326C922.621 76.2021 922.086 76.0585 921.733 75.9019L923.143 71.1053C924.213 71.3924 925.166 71.5164 926.001 71.4773C926.836 71.4381 927.574 71.1249 928.213 70.5375C928.866 69.9502 929.44 68.9908 929.936 67.6595L930.661 65.6626L919.658 35.199H925.923L933.539 58.5361H933.852L941.468 35.199H947.752L935.359 69.2845C934.785 70.8508 934.054 72.1756 933.167 73.2589C932.279 74.3553 931.222 75.1775 929.995 75.7257C928.768 76.2739 927.346 76.548 925.727 76.548Z" fill="white"/>
<g clip-path="url(#clip0_11578_27856)">
<mask id="mask0_11578_27856" style="mask-type:luminance" maskUnits="userSpaceOnUse" x="983" y="-1" width="629" height="92">
<path d="M1611.99 -0.00610352H983.922V90.536H1611.99V-0.00610352Z" fill="white"/>
</mask>
<g mask="url(#mask0_11578_27856)">
<mask id="mask1_11578_27856" style="mask-type:luminance" maskUnits="userSpaceOnUse" x="983" y="-1" width="629" height="92">
<path d="M1611.99 -0.00830078H983.919V90.5339H1611.99V-0.00830078Z" fill="white"/>
</mask>
<g mask="url(#mask1_11578_27856)">
<path d="M1091.45 90.8923C1091.11 90.655 1090.98 90.2857 1090.75 90.2002C1087.98 89.1741 1085.17 88.2587 1082.45 87.121C1082.04 86.9507 1081.7 85.6484 1081.92 85.1065C1083.3 81.6942 1084.8 78.3316 1086.36 74.9948C1086.7 74.2647 1087.2 73.8521 1088.33 74.4176C1090.48 75.4855 1092.71 76.5372 1095.28 76.2384C1097.18 76.018 1098.39 74.8606 1099.45 73.4735C1099.61 73.2588 1099.54 72.7531 1099.42 72.4475C1098.1 69.1643 1096.68 65.917 1095.41 62.6149C1093.97 58.888 1092.7 55.0956 1091.26 51.368C1089.93 47.9016 1088.44 44.4925 1087.07 41.0401C1086.4 39.3502 1085.87 37.6031 1085.21 35.9117C1084.41 33.8991 1083.5 31.9306 1082.7 29.9211C1081.39 26.6351 1080.11 23.3315 1078.53 20.0545C1078.53 23.796 1078.53 27.5375 1078.53 30.8724C1075.11 31.841 1071.85 32.3918 1068.94 33.7174C1066.84 34.6708 1064.82 36.372 1063.47 38.2479C1061.16 41.4767 1060.13 45.3063 1060.14 49.3585C1060.16 57.1863 1060.14 65.0144 1060.14 72.9199C1054.03 72.9199 1048.4 72.9199 1042.61 72.9199C1042.61 72.3555 1042.61 71.8369 1042.61 71.318C1042.61 53.1305 1042.63 34.9428 1042.57 16.7553C1042.57 15.1288 1042.95 14.5847 1044.65 14.6241C1049.64 14.7394 1054.64 14.6651 1059.75 14.6651C1059.75 17.694 1059.75 20.5962 1059.75 23.7983C1060.38 23.4419 1061.01 23.3081 1061.17 22.9587C1063.31 18.2874 1067.06 15.5166 1071.88 14.2839C1073.83 13.7843 1076.16 13.4698 1078 14.0705C1081.63 15.2608 1085.23 14.2637 1088.81 14.6487C1089.81 14.7564 1090.83 14.6651 1091.85 14.6651C1095.24 14.6651 1095.21 14.6734 1096.28 17.7625C1097.19 20.4074 1098.25 23.0039 1099.1 25.669C1100.49 30.0623 1101.69 34.5208 1103.12 38.9011C1104.43 42.9153 1105.95 46.8641 1107.39 50.8347C1107.48 51.0953 1107.74 51.2953 1107.93 51.5236C1108.11 51.2917 1108.36 51.0863 1108.45 50.8236C1109.3 48.3439 1110.13 45.856 1110.95 43.368C1112.12 39.8469 1113.29 36.329 1114.44 32.8004C1116.27 27.1413 1118.14 21.4913 1119.85 15.7954C1120.16 14.7603 1120.61 14.6571 1121.44 14.6591C1126.51 14.6711 1131.58 14.6836 1136.65 14.6514C1137.84 14.6438 1138.2 15.0678 1137.8 16.1859C1136.93 18.6046 1136.14 21.0532 1135.21 23.4461C1134.13 26.202 1132.88 28.8896 1131.8 31.6456C1130.09 36.0395 1128.47 40.4696 1126.79 44.8761C1125.71 47.6887 1124.53 50.464 1123.52 53.2973C1122.48 56.1939 1121.67 59.171 1120.6 62.0584C1119.22 65.8229 1117.6 69.5004 1116.25 73.277C1114.93 76.9617 1113.49 80.5594 1111.15 83.7241C1108.65 87.0906 1105.69 89.77 1101.26 90.208C1101.07 90.2266 1100.91 90.489 1100.83 90.7649C1097.83 90.8923 1094.72 90.8923 1091.45 90.8923Z" fill="white"/>
<path d="M1141.91 90.8912C1141.5 89.0639 1141.06 87.2369 1141.05 85.4089C1141.01 62.6843 1141.02 39.9593 1141.02 17.2343C1141.02 14.6641 1141.03 14.664 1143.52 14.664C1148 14.6639 1152.47 14.7014 1156.94 14.64C1158.2 14.6227 1158.64 15.0382 1158.58 16.2894C1158.5 17.9857 1158.56 19.6894 1158.56 21.5325C1160.62 19.8914 1162.42 18.2836 1164.39 16.9357C1167.2 15.0129 1170.34 13.9127 1173.81 13.9427C1177.32 13.973 1180.84 13.7429 1184.25 14.9995C1188.71 16.6421 1192.71 19.0018 1195.66 22.7289C1197.71 25.3148 1199.58 28.0715 1200.57 31.3521C1201.61 34.7862 1202.76 38.1563 1202.59 41.817C1202.43 45.0024 1202.73 48.268 1202.13 51.3597C1201.28 55.6867 1199.69 59.735 1197.08 63.5271C1194.04 67.9439 1189.94 70.6183 1185.35 72.7921C1183.78 73.5389 1181.92 73.7386 1180.16 74.0532C1175.76 74.842 1171.35 74.3474 1167.27 72.8601C1164.53 71.8644 1162.25 69.6385 1159.77 67.9543C1159.46 67.7389 1159.17 67.4708 1158.64 67.0346C1158.61 67.814 1158.56 68.3147 1158.56 68.8154C1158.56 75.3763 1158.58 81.9375 1158.53 88.4981C1158.53 89.2099 1158.18 89.9192 1158.09 90.7602C1152.83 90.8912 1147.45 90.8912 1141.91 90.8912ZM1182.38 34.0055C1180.92 32.6958 1179.64 31.0207 1177.96 30.1433C1172.41 27.2602 1166.97 28.2109 1162.73 32.5871C1159.27 36.1568 1158.04 40.5945 1158.5 45.6366C1158.89 49.9858 1160.56 53.5209 1163.69 56.4877C1167.06 59.6806 1174.23 60.4382 1178.14 57.8784C1180.92 56.0564 1183.05 53.7957 1184.2 50.474C1186.2 44.714 1185.71 39.3763 1182.38 34.0055Z" fill="white"/>
<path d="M984.276 37.0224C984.512 36.7439 984.89 36.6906 984.961 36.5142C986.084 33.7157 986.909 30.7621 988.326 28.1263C990.103 24.8229 992.742 22.1166 995.755 19.8443C999.738 16.8404 1004.25 14.8918 1009.13 14.1141C1011.92 13.6696 1014.83 13.9982 1017.69 13.9467C1023.09 13.8494 1027.93 15.6442 1032.34 18.5634C1034.2 19.7918 1035.78 21.4427 1037.46 22.9367C1038.33 23.7145 1038.05 24.4302 1037.3 25.1821C1035.69 26.7729 1034.14 28.4191 1032.58 30.0588C1031.15 31.5669 1029.77 33.1309 1028.28 34.5836C1028.03 34.8358 1027.09 34.8729 1026.9 34.646C1023.92 31.1318 1020.05 29.2507 1015.6 28.6788C1012.89 28.3313 1010.43 29.4174 1008.04 30.7482C1005.28 32.2832 1003.59 34.7173 1002.34 37.3627C1001.23 39.6821 1000.91 42.2996 1001.07 44.9636C1001.38 50.5038 1003.57 55.0556 1008.41 57.8002C1011.76 59.6998 1015.55 59.8859 1019.4 58.877C1022.98 57.9394 1025.57 55.5982 1028.48 53.1188C1030.87 55.5695 1033.26 58.0303 1035.65 60.4871C1036.28 61.1381 1036.87 61.8585 1037.59 62.401C1038.64 63.1991 1038.48 64.1438 1037.71 64.7762C1035.09 66.9388 1032.71 69.3108 1029.62 71.0064C1023.58 74.3196 1017.16 74.8525 1010.64 74.3103C1007.23 74.0269 1003.72 72.9339 1000.61 71.4602C997.01 69.7524 993.538 67.5694 991.22 64.044C989.987 62.1691 988.317 60.5429 987.313 58.5664C986.242 56.4567 985.726 54.065 984.95 51.8026C984.909 51.6827 984.699 51.62 984.422 51.5291C984.276 46.7483 984.276 41.9692 984.276 37.0224Z" fill="white"/>
<path d="M1228.54 0.350098C1228.71 5.054 1228.71 9.75793 1228.71 14.6651C1232.52 14.6651 1236.25 14.7423 1239.98 14.6289C1241.59 14.5802 1242.02 15.0978 1241.98 16.6572C1241.88 20.9391 1241.95 25.2249 1241.95 29.652C1237.53 29.652 1233.21 29.652 1228.71 29.652C1228.71 30.3674 1228.71 30.9423 1228.71 31.5171C1228.71 39.3902 1228.71 47.2635 1228.71 55.1367C1228.71 57.047 1229.71 58.5093 1231.58 58.6213C1234.37 58.7884 1237.22 58.9738 1239.76 57.29C1240.21 56.9944 1240.85 57.0048 1241.59 56.8312C1241.59 61.3419 1241.63 65.7398 1241.53 70.1345C1241.52 70.6563 1240.8 71.4239 1240.25 71.6243C1238.05 72.4188 1235.83 73.214 1233.55 73.6764C1228.88 74.6237 1224.17 74.323 1219.66 72.9109C1217.37 72.1937 1215.43 70.5364 1214.02 68.4045C1211.93 65.2409 1211.17 61.7491 1211.17 58.028C1211.17 48.666 1211.17 39.304 1211.17 29.859C1208.93 29.859 1206.73 29.859 1204.45 29.859C1204.45 24.9587 1204.45 19.9091 1204.45 14.7156C1206.63 14.7156 1208.81 14.7156 1211.17 14.7156C1211.17 9.94499 1211.17 5.31524 1211.17 0.517819C1216.91 0.350098 1222.64 0.350098 1228.54 0.350098Z" fill="white"/>
<path d="M1370.94 90.8924C1370.66 89.5526 1370.44 88.213 1370.43 86.8728C1370.41 64.4541 1370.44 42.0351 1370.38 19.6166C1370.38 17.9879 1370.76 17.4434 1372.46 17.4869C1376.86 17.5993 1376.86 17.5172 1376.86 21.9146C1376.86 23.8984 1376.86 25.8823 1376.86 27.8662C1380.17 23.3732 1384.29 20.0379 1389.22 18.0526C1393.92 16.1611 1398.99 15.8061 1404.02 16.9811C1406.01 17.4472 1408.07 17.8631 1409.91 18.7166C1411.83 19.6087 1413.57 20.9293 1415.3 22.1936C1416.81 23.2988 1418.47 24.3737 1419.54 25.8435C1421.07 27.9408 1422.24 30.3298 1423.34 32.7028C1424.09 34.3416 1424.69 36.132 1424.92 37.911C1425.33 41.056 1425.4 44.2435 1425.6 47.4143C1425.62 47.7636 1425.54 48.1183 1425.53 48.4708C1425.37 54.1059 1423.42 59.0348 1420.15 63.6271C1417.65 67.1378 1414.44 69.8333 1410.78 71.6828C1405.28 74.456 1399.26 75.2179 1393.13 73.9936C1386.9 72.7486 1381.99 69.3631 1378.09 64.4194C1377.86 64.1177 1377.51 63.9037 1376.98 63.4564C1376.93 64.2115 1376.86 64.7029 1376.86 65.1939C1376.86 73.0048 1376.88 80.8158 1376.82 88.626C1376.81 89.2981 1376.24 89.9659 1376.04 90.764C1374.47 90.8924 1372.79 90.8924 1370.94 90.8924ZM1380.46 31.6714C1378.87 34.8395 1377.17 37.8809 1376.77 41.581C1376.24 46.3872 1376.49 50.9687 1378.42 55.4289C1379.64 58.2368 1381.47 60.5962 1383.67 62.6619C1387.53 66.2725 1392.18 68.2225 1397.4 68.6481C1398.95 68.7751 1400.59 68.3206 1402.15 67.966C1403.98 67.5519 1405.86 67.1772 1407.54 66.3938C1411.6 64.496 1414.62 61.3653 1416.52 57.3439C1417.54 55.1992 1418.13 52.8275 1418.68 50.5024C1419.12 48.649 1419.42 46.7057 1419.37 44.8115C1419.34 43.176 1418.63 41.5677 1418.39 39.9229C1417.6 34.4892 1414.86 30.2596 1410.68 26.8088C1408 24.598 1404.95 22.9866 1401.6 22.646C1398.16 22.2957 1394.61 22.1738 1391.18 23.5654C1388.35 24.7111 1385.9 26.3152 1383.67 28.3047C1382.59 29.2724 1381.67 30.4276 1380.46 31.6714Z" fill="white"/>
<path d="M1612.35 63.167C1611.99 63.702 1611.52 64.0105 1611.3 64.446C1609.58 67.7979 1607.14 70.24 1603.71 72.0294C1600.58 73.6609 1597.27 74.0625 1594 74.3112C1591.21 74.5223 1588.33 73.842 1585.53 73.3274C1580.3 72.3676 1575.54 70.3112 1571.35 66.9783C1570.39 66.2139 1570.21 65.6038 1571.12 64.6189C1572.13 63.527 1572.96 62.263 1573.79 61.184C1576.26 62.6209 1578.49 64.027 1580.82 65.2466C1583.61 66.7107 1586.5 67.921 1589.76 68.0198C1591 68.0577 1592.28 68.7963 1593.47 68.6435C1597.84 68.0831 1602.15 67.3037 1604.87 63.1477C1606.79 60.1891 1606.84 54.9015 1603.04 52.4945C1599.2 50.0545 1595.06 48.8098 1590.8 47.5254C1585.67 45.9779 1580.37 44.6549 1576.31 40.7265C1573.33 37.8456 1572.86 34.3579 1573.25 30.4177C1573.45 28.3015 1574.26 26.5781 1575.08 24.7246C1576.4 21.7229 1578.85 19.9176 1581.58 18.6699C1586.97 16.2093 1592.61 16.4255 1598.38 17.429C1601.91 18.0428 1605.06 19.3822 1608.26 20.7781C1608.77 21 1609.37 21.057 1609.81 21.3692C1611.62 22.6733 1611.67 23.1143 1610.43 24.9888C1608.39 28.0489 1608.39 28.043 1605.21 26.3034C1600.17 23.5559 1594.85 22.1082 1589.06 22.5167C1585.14 22.7929 1580.93 25.7278 1579.58 29.3492C1578.54 32.1565 1580.29 36.3858 1583.27 37.6183C1587.48 39.3619 1591.71 41.1348 1596.07 42.425C1600 43.5877 1603.81 44.8063 1607.19 47.194C1609.39 48.749 1610.89 50.8379 1612.24 53.061C1612.35 56.304 1612.35 59.6516 1612.35 63.167Z" fill="white"/>
<path d="M1297.77 22.936C1300.03 24.2716 1301.11 26.5347 1302.31 28.5316C1303.7 30.8496 1305.17 33.4415 1305.44 36.038C1305.85 39.8193 1307.76 43.5612 1306.09 47.5469C1305.53 48.8849 1306.09 50.6786 1305.57 52.0503C1304.48 54.9348 1303.3 57.8633 1301.64 60.4382C1298.71 64.9742 1294.83 68.4564 1289.86 70.9558C1283.85 73.9766 1277.57 74.9758 1271.11 74.3466C1262.72 73.5285 1255.5 70.0815 1249.95 63.3881C1247.36 60.2539 1245.51 56.8 1244.38 53.0066C1243.25 49.2038 1242.29 45.172 1243.13 41.2561C1243.83 37.9598 1244.42 34.6106 1245.95 31.4173C1247.94 27.2645 1250.58 23.6717 1254 20.8915C1257.77 17.8387 1262.18 15.7332 1267.05 14.5923C1271.24 13.6122 1275.42 13.8963 1279.57 14.0444C1282.87 14.1621 1286.1 15.2325 1289.07 16.873C1291.27 18.0917 1293.57 19.1547 1295.71 20.4717C1296.55 20.9897 1297.08 22.0098 1297.77 22.936ZM1288.82 48.4469C1289.83 45.0478 1289.27 41.8363 1288.25 38.4676C1286.42 32.4265 1278.43 27.5977 1272.5 28.9084C1265.03 30.5604 1261.39 35.0372 1260.29 41.7296C1259.16 48.5782 1263.17 56.8255 1270.88 58.8432C1275.06 59.9368 1278.98 59.4959 1282.73 57.2689C1286.04 55.3063 1287.61 52.1734 1288.82 48.4469Z" fill="white"/>
<path d="M1518.93 40.5818C1518.93 43.0691 1518.93 45.3906 1518.93 47.9057C1503.91 47.9057 1488.93 47.9057 1473.98 47.9057C1473.16 56.1272 1482.02 66.9382 1486.63 66.3373C1486.58 66.4991 1486.53 66.6612 1486.47 66.823C1487.57 67.212 1488.65 67.7194 1489.78 67.961C1491.42 68.3103 1493.09 68.6495 1494.75 68.6714C1500.19 68.7433 1505 66.872 1509.24 63.5237C1510.36 62.643 1511.33 61.5661 1512.48 60.7348C1512.88 60.4428 1513.8 60.3598 1514.17 60.6239C1515.38 61.4885 1516.45 62.5567 1517.84 63.78C1516.14 65.394 1514.65 67.0262 1512.94 68.3955C1506.58 73.5156 1499.11 75.1711 1491.2 74.3444C1485.41 73.7392 1480.25 71.4753 1475.88 67.2066C1473.05 64.4392 1470.77 61.4262 1469.41 57.8732C1468.22 54.7379 1467.47 51.3377 1467.12 47.992C1466.53 42.4084 1467.52 36.9791 1469.89 31.83C1472.19 26.835 1475.65 22.7971 1480.28 19.9364C1485.17 16.9179 1490.68 15.9016 1496.35 16.506C1502.27 17.1376 1507.42 19.3868 1511.53 24.0618C1513.36 26.1383 1514.72 28.3812 1516.05 30.705C1517.68 33.5562 1518.05 36.7948 1518.68 39.9484C1518.71 40.1141 1518.84 40.2605 1518.93 40.5818ZM1510.34 33.5536C1508.65 30.9812 1507.35 28.2292 1504.72 26.2299C1501.91 24.099 1499.02 22.7564 1495.55 22.5237C1495.29 22.506 1495.05 22.2443 1494.78 22.1898C1494.05 22.0425 1493.26 21.7169 1492.58 21.8716C1490.49 22.3523 1488.39 22.8974 1486.39 23.6489C1483.31 24.7999 1480.85 26.8148 1478.82 29.4213C1477.14 31.5821 1475.7 33.8153 1475.06 36.5243C1474.61 38.484 1474.03 40.4161 1473.48 42.4932C1486.7 42.4932 1499.38 42.4932 1512.61 42.4932C1511.82 39.4642 1511.08 36.6502 1510.34 33.5536Z" fill="white"/>
<path d="M1542.08 40.1747C1546.56 41.6309 1551.02 42.7475 1555.24 44.4435C1559.04 45.9691 1562.69 47.9857 1564.47 52.1231C1566.63 57.1709 1566.06 61.77 1563.06 66.4424C1561.08 69.5294 1558.38 71.4529 1555.28 72.8222C1553.33 73.6836 1550.99 73.6159 1548.85 74.0855C1544.52 75.0328 1540.34 73.8647 1536.28 72.8698C1533.07 72.0825 1530.11 70.2305 1527.08 68.7642C1526.1 68.2915 1525.18 67.6237 1524.39 66.885C1523.98 66.5114 1523.57 65.5946 1523.75 65.2442C1524.39 64.0532 1525.25 62.9649 1526.12 61.917C1526.71 61.2067 1527.32 61.3545 1528.12 61.9063C1531.9 64.5131 1535.98 66.5841 1540.42 67.7779C1542.47 68.3301 1544.69 68.795 1546.77 68.624C1551.33 68.2496 1555.58 66.9649 1558.33 62.7809C1559.74 60.6269 1559.46 56.0747 1557.84 54.0767C1555.06 50.6354 1550.92 49.7851 1547.12 48.3504C1545.2 47.6318 1543.06 47.5351 1541.15 46.8266C1536.97 45.278 1532.51 44.0566 1529.31 40.7423C1526.66 38.0068 1525.68 34.4753 1526.11 30.6749C1526.54 26.8964 1527.95 23.4687 1531.01 21.089C1533.63 19.0568 1536.44 17.4667 1539.97 17.0762C1544.82 16.5392 1549.61 16.6203 1554.22 17.9751C1557.6 18.9657 1560.75 20.7291 1563.97 22.2163C1564.38 22.4018 1564.58 23.0061 1564.79 23.2826C1564.14 24.1937 1563.39 25.1115 1562.79 26.1185C1561.82 27.7474 1561.03 27.92 1559.38 27.0524C1557.18 25.8976 1554.95 24.7267 1552.63 23.8779C1548.57 22.4003 1544.34 21.8844 1540.11 22.9345C1536.7 23.7804 1533.85 25.8346 1532.71 29.1567C1531.97 31.3145 1532.17 33.8285 1534.14 35.8434C1536.34 38.112 1539.09 39.1648 1542.08 40.1747Z" fill="white"/>
<path d="M1319.35 60.1961C1323.5 55.0098 1327.57 49.9133 1331.6 44.8543C1324.52 36.085 1317.37 27.2214 1310.05 18.1418C1310.58 17.8876 1310.95 17.565 1311.32 17.5545C1313.23 17.5014 1315.15 17.4426 1317.04 17.5861C1317.57 17.6256 1318.11 18.2911 1318.52 18.7788C1320.55 21.2405 1322.54 23.7332 1324.54 26.2245C1327.86 30.3735 1331.17 34.5352 1334.5 38.6796C1335.63 40.0885 1336.19 40.0771 1337.27 38.6878C1338.48 37.1296 1339.67 35.5556 1340.89 34.0025C1343.11 31.1743 1345.35 28.3589 1347.57 25.5335C1349.3 23.3294 1351.01 21.1045 1352.76 18.9169C1353.47 18.0334 1354.25 17.3206 1355.6 17.4953C1356.83 17.655 1358.1 17.4723 1359.35 17.554C1359.94 17.5927 1360.51 17.8962 1361.1 18.0797C1360.8 18.5036 1360.52 18.9427 1360.2 19.3487C1357.91 22.2502 1355.63 25.1572 1353.32 28.039C1349.43 32.8913 1345.52 37.7305 1341.61 42.5643C1341 43.3098 1340.33 43.9972 1339.69 44.7094C1347.11 53.9941 1354.55 63.301 1362.31 72.9994C1359.54 72.9994 1357.3 73.0677 1355.08 72.9514C1354.52 72.9221 1353.85 72.4103 1353.47 71.9318C1349.71 67.1578 1346 62.3329 1342.25 57.546C1340.33 55.0899 1338.35 52.6746 1336.38 50.2582C1335.84 49.6044 1335.54 49.4616 1334.82 50.3749C1330.57 55.7645 1326.15 61.0235 1321.84 66.368C1320.74 67.7254 1319.89 69.2732 1318.82 70.6607C1317.59 72.28 1316.18 73.5197 1313.82 73.047C1312.51 72.7836 1311.09 72.9997 1309.31 72.61C1312.63 68.502 1315.94 64.3939 1319.35 60.1961Z" fill="white"/>
<path d="M1442 24.6824C1442 26.6834 1442 28.506 1442 30.3286C1442.12 30.4453 1442.24 30.562 1442.36 30.6787C1447.89 21.7848 1455.45 16.523 1466.25 16.828C1466.25 19.0979 1466.25 21.2707 1466.25 23.6203C1462.8 23.3497 1459.51 23.9395 1456.43 25.4C1453.51 26.7838 1450.96 28.5998 1448.7 31.0341C1446.8 33.0694 1445.4 35.3868 1444.38 37.7528C1443.18 40.5492 1442.53 43.764 1442.44 46.8206C1442.19 55.4754 1442.35 64.1421 1442.35 72.9003C1439.97 72.9003 1438.04 72.9003 1435.98 72.9003C1435.96 72.4584 1435.92 72.0028 1435.92 71.5472C1435.91 54.205 1435.93 36.8624 1435.88 19.5203C1435.88 17.9727 1436.27 17.4514 1437.87 17.4887C1441.99 17.5843 1442 17.5097 1442 21.6433C1442 22.5969 1442 23.5504 1442 24.6824Z" fill="white"/>
</g>
</g>
</g>
<path d="M132.907 176.795C132.686 174.561 131.735 172.826 130.056 171.59C128.376 170.353 126.097 169.735 123.217 169.735C121.261 169.735 119.609 170.012 118.262 170.565C116.914 171.101 115.881 171.848 115.161 172.808C114.46 173.768 114.109 174.857 114.109 176.075C114.072 177.09 114.284 177.976 114.746 178.733C115.226 179.489 115.881 180.145 116.711 180.698C117.542 181.233 118.502 181.704 119.591 182.11C120.68 182.498 121.842 182.83 123.079 183.107L128.173 184.325C130.646 184.879 132.916 185.617 134.984 186.54C137.051 187.463 138.841 188.598 140.355 189.945C141.868 191.292 143.04 192.88 143.871 194.707C144.72 196.534 145.153 198.629 145.172 200.992C145.153 204.461 144.267 207.47 142.514 210.017C140.779 212.546 138.269 214.511 134.984 215.914C131.717 217.298 127.776 217.99 123.162 217.99C118.585 217.99 114.598 217.289 111.202 215.886C107.824 214.484 105.185 212.407 103.284 209.657C101.401 206.889 100.414 203.465 100.322 199.386H111.922C112.051 201.287 112.595 202.874 113.555 204.148C114.533 205.403 115.835 206.353 117.459 206.999C119.101 207.627 120.956 207.941 123.024 207.941C125.054 207.941 126.816 207.645 128.311 207.055C129.825 206.464 130.997 205.643 131.827 204.591C132.658 203.539 133.073 202.33 133.073 200.964C133.073 199.69 132.695 198.62 131.938 197.752C131.2 196.885 130.111 196.147 128.671 195.538C127.25 194.928 125.506 194.375 123.439 193.876L117.265 192.326C112.485 191.163 108.71 189.345 105.942 186.872C103.173 184.399 101.798 181.067 101.817 176.878C101.798 173.445 102.712 170.445 104.557 167.88C106.422 165.314 108.978 163.312 112.226 161.872C115.475 160.433 119.166 159.713 123.3 159.713C127.509 159.713 131.181 160.433 134.319 161.872C137.475 163.312 139.93 165.314 141.683 167.88C143.437 170.445 144.341 173.417 144.397 176.795H132.907ZM175.633 174.663V183.522H150.024V174.663H175.633ZM155.838 164.475H167.632V204.12C167.632 205.209 167.798 206.058 168.13 206.667C168.462 207.258 168.924 207.673 169.514 207.913C170.123 208.153 170.825 208.273 171.618 208.273C172.172 208.273 172.726 208.227 173.279 208.134C173.833 208.024 174.258 207.941 174.553 207.885L176.408 216.661C175.817 216.846 174.987 217.058 173.916 217.298C172.846 217.557 171.544 217.714 170.012 217.769C167.17 217.88 164.678 217.501 162.537 216.634C160.415 215.766 158.763 214.419 157.582 212.592C156.401 210.765 155.819 208.457 155.838 205.67V164.475ZM195.441 217.99C192.728 217.99 190.31 217.52 188.188 216.578C186.065 215.619 184.386 214.207 183.149 212.343C181.931 210.46 181.322 208.116 181.322 205.31C181.322 202.948 181.756 200.964 182.623 199.358C183.491 197.752 184.672 196.46 186.167 195.482C187.662 194.504 189.36 193.766 191.261 193.267C193.18 192.769 195.192 192.418 197.296 192.215C199.77 191.957 201.763 191.717 203.276 191.496C204.79 191.256 205.888 190.905 206.571 190.443C207.254 189.982 207.595 189.299 207.595 188.395V188.229C207.595 186.475 207.042 185.119 205.934 184.159C204.845 183.199 203.295 182.719 201.283 182.719C199.161 182.719 197.472 183.19 196.217 184.131C194.962 185.054 194.131 186.217 193.725 187.62L182.817 186.734C183.371 184.15 184.46 181.916 186.084 180.034C187.708 178.133 189.803 176.675 192.368 175.66C194.952 174.626 197.942 174.109 201.338 174.109C203.701 174.109 205.962 174.386 208.121 174.94C210.299 175.493 212.228 176.352 213.908 177.514C215.606 178.677 216.944 180.172 217.922 181.999C218.9 183.808 219.389 185.977 219.389 188.505V217.188H208.204V211.291H207.872C207.189 212.619 206.276 213.791 205.131 214.807C203.987 215.803 202.612 216.588 201.006 217.16C199.4 217.714 197.546 217.99 195.441 217.99ZM198.819 209.851C200.554 209.851 202.086 209.509 203.415 208.827C204.744 208.125 205.787 207.184 206.543 206.003C207.3 204.821 207.678 203.483 207.678 201.988V197.476C207.309 197.715 206.802 197.937 206.156 198.14C205.528 198.325 204.818 198.5 204.024 198.666C203.23 198.814 202.437 198.952 201.643 199.081C200.849 199.192 200.13 199.294 199.484 199.386C198.099 199.589 196.89 199.912 195.857 200.355C194.823 200.798 194.02 201.398 193.448 202.154C192.876 202.893 192.59 203.815 192.59 204.923C192.59 206.529 193.171 207.756 194.334 208.605C195.515 209.436 197.01 209.851 198.819 209.851ZM234.298 233.134C232.803 233.134 231.4 233.014 230.09 232.774C228.798 232.553 227.727 232.267 226.878 231.916L229.536 223.112C230.92 223.537 232.166 223.767 233.273 223.804C234.399 223.841 235.368 223.583 236.18 223.029C237.011 222.475 237.685 221.534 238.201 220.205L238.894 218.406L223.639 174.663H236.042L244.846 205.892H245.289L254.176 174.663H266.662L250.134 221.783C249.34 224.072 248.26 226.065 246.895 227.763C245.547 229.48 243.84 230.799 241.773 231.722C239.706 232.664 237.214 233.134 234.298 233.134ZM300.736 217.188H287.89L307.463 160.488H322.912L342.457 217.188H329.611L315.409 173.445H314.966L300.736 217.188ZM299.933 194.901H330.276V204.258H299.933V194.901ZM360.854 192.603V217.188H349.06V160.488H360.522V182.166H361.02C361.98 179.655 363.531 177.69 365.672 176.269C367.813 174.829 370.498 174.109 373.728 174.109C376.681 174.109 379.256 174.755 381.452 176.047C383.667 177.321 385.384 179.157 386.602 181.556C387.838 183.937 388.447 186.789 388.429 190.111V217.188H376.635V192.215C376.653 189.594 375.989 187.555 374.642 186.097C373.313 184.639 371.449 183.91 369.049 183.91C367.443 183.91 366.022 184.251 364.786 184.934C363.568 185.617 362.608 186.614 361.906 187.924C361.224 189.216 360.873 190.776 360.854 192.603ZM417.09 218.018C412.716 218.018 408.951 217.132 405.795 215.36C402.657 213.57 400.239 211.041 398.541 207.774C396.843 204.489 395.994 200.604 395.994 196.119C395.994 191.745 396.843 187.906 398.541 184.602C400.239 181.298 402.629 178.723 405.712 176.878C408.812 175.032 412.448 174.109 416.62 174.109C419.425 174.109 422.037 174.561 424.455 175.466C426.891 176.352 429.013 177.69 430.822 179.48C432.649 181.27 434.071 183.522 435.086 186.235C436.101 188.93 436.608 192.086 436.608 195.704V198.943H400.7V191.634H425.507C425.507 189.936 425.137 188.432 424.399 187.121C423.661 185.811 422.637 184.786 421.326 184.048C420.034 183.291 418.53 182.913 416.813 182.913C415.023 182.913 413.436 183.328 412.051 184.159C410.686 184.971 409.615 186.069 408.84 187.453C408.065 188.819 407.668 190.342 407.65 192.022V198.971C407.65 201.075 408.037 202.893 408.812 204.425C409.606 205.956 410.723 207.138 412.162 207.968C413.602 208.799 415.309 209.214 417.284 209.214C418.594 209.214 419.794 209.03 420.883 208.66C421.972 208.291 422.904 207.738 423.679 206.999C424.455 206.261 425.045 205.357 425.451 204.286L436.359 205.006C435.805 207.627 434.67 209.915 432.954 211.872C431.256 213.81 429.059 215.323 426.365 216.412C423.689 217.483 420.597 218.018 417.09 218.018ZM456.431 217.99C453.718 217.99 451.3 217.52 449.178 216.578C447.055 215.619 445.375 214.207 444.139 212.343C442.921 210.46 442.312 208.116 442.312 205.31C442.312 202.948 442.745 200.964 443.613 199.358C444.48 197.752 445.661 196.46 447.156 195.482C448.651 194.504 450.35 193.766 452.251 193.267C454.17 192.769 456.182 192.418 458.286 192.215C460.759 191.957 462.753 191.717 464.266 191.496C465.779 191.256 466.878 190.905 467.561 190.443C468.243 189.982 468.585 189.299 468.585 188.395V188.229C468.585 186.475 468.031 185.119 466.924 184.159C465.835 183.199 464.284 182.719 462.273 182.719C460.15 182.719 458.461 183.19 457.206 184.131C455.951 185.054 455.121 186.217 454.715 187.62L443.807 186.734C444.36 184.15 445.449 181.916 447.073 180.034C448.698 178.133 450.792 176.675 453.358 175.66C455.942 174.626 458.932 174.109 462.328 174.109C464.691 174.109 466.951 174.386 469.111 174.94C471.289 175.493 473.218 176.352 474.897 177.514C476.595 178.677 477.933 180.172 478.912 181.999C479.89 183.808 480.379 185.977 480.379 188.505V217.188H469.194V211.291H468.862C468.179 212.619 467.265 213.791 466.121 214.807C464.977 215.803 463.602 216.588 461.996 217.16C460.39 217.714 458.535 217.99 456.431 217.99ZM459.809 209.851C461.544 209.851 463.076 209.509 464.404 208.827C465.733 208.125 466.776 207.184 467.533 206.003C468.29 204.821 468.668 203.483 468.668 201.988V197.476C468.299 197.715 467.791 197.937 467.145 198.14C466.518 198.325 465.807 198.5 465.014 198.666C464.22 198.814 463.426 198.952 462.633 199.081C461.839 199.192 461.119 199.294 460.473 199.386C459.089 199.589 457.88 199.912 456.846 200.355C455.813 200.798 455.01 201.398 454.438 202.154C453.866 202.893 453.579 203.815 453.579 204.923C453.579 206.529 454.161 207.756 455.324 208.605C456.505 209.436 458 209.851 459.809 209.851ZM505.199 217.88C501.969 217.88 499.043 217.049 496.423 215.388C493.82 213.708 491.753 211.244 490.221 207.996C488.708 204.729 487.951 200.724 487.951 195.981C487.951 191.108 488.735 187.057 490.304 183.827C491.873 180.578 493.959 178.151 496.561 176.545C499.182 174.921 502.052 174.109 505.171 174.109C507.552 174.109 509.536 174.515 511.123 175.327C512.729 176.121 514.021 177.118 514.999 178.317C515.996 179.499 516.753 180.661 517.27 181.806H517.63V160.488H529.396V217.188H517.768V210.377H517.27C516.716 211.558 515.931 212.73 514.916 213.893C513.92 215.037 512.618 215.988 511.013 216.745C509.425 217.501 507.487 217.88 505.199 217.88ZM508.936 208.494C510.837 208.494 512.443 207.978 513.754 206.944C515.082 205.892 516.098 204.425 516.799 202.542C517.519 200.659 517.879 198.454 517.879 195.925C517.879 193.397 517.528 191.2 516.827 189.336C516.125 187.472 515.11 186.032 513.781 185.017C512.452 184.002 510.837 183.494 508.936 183.494C506.998 183.494 505.365 184.02 504.036 185.073C502.707 186.125 501.701 187.583 501.018 189.447C500.335 191.311 499.994 193.47 499.994 195.925C499.994 198.398 500.335 200.586 501.018 202.487C501.72 204.369 502.726 205.846 504.036 206.916C505.365 207.968 506.998 208.494 508.936 208.494ZM557.136 217.188V174.663H568.93V217.188H557.136ZM563.061 169.181C561.308 169.181 559.803 168.6 558.548 167.437C557.312 166.256 556.694 164.844 556.694 163.201C556.694 161.577 557.312 160.183 558.548 159.021C559.803 157.839 561.308 157.249 563.061 157.249C564.815 157.249 566.31 157.839 567.546 159.021C568.801 160.183 569.429 161.577 569.429 163.201C569.429 164.844 568.801 166.256 567.546 167.437C566.31 168.6 564.815 169.181 563.061 169.181ZM590.172 192.603V217.188H578.378V174.663H589.618V182.166H590.117C591.058 179.692 592.636 177.736 594.851 176.296C597.066 174.838 599.751 174.109 602.907 174.109C605.86 174.109 608.435 174.755 610.631 176.047C612.828 177.339 614.535 179.185 615.753 181.584C616.971 183.965 617.58 186.807 617.58 190.111V217.188H605.786V192.215C605.805 189.613 605.141 187.583 603.793 186.125C602.446 184.648 600.591 183.91 598.228 183.91C596.641 183.91 595.238 184.251 594.02 184.934C592.821 185.617 591.879 186.614 591.196 187.924C590.532 189.216 590.19 190.776 590.172 192.603ZM695.169 180.338H683.042C682.821 178.769 682.369 177.376 681.686 176.158C681.003 174.921 680.126 173.869 679.056 173.002C677.985 172.134 676.749 171.47 675.346 171.008C673.962 170.547 672.457 170.316 670.833 170.316C667.899 170.316 665.342 171.045 663.164 172.503C660.986 173.943 659.298 176.047 658.098 178.816C656.898 181.566 656.298 184.906 656.298 188.838C656.298 192.88 656.898 196.276 658.098 199.026C659.316 201.776 661.014 203.852 663.192 205.255C665.37 206.658 667.889 207.359 670.75 207.359C672.356 207.359 673.842 207.147 675.207 206.722C676.592 206.298 677.819 205.68 678.89 204.868C679.96 204.037 680.846 203.031 681.547 201.85C682.267 200.669 682.766 199.321 683.042 197.808L695.169 197.863C694.855 200.466 694.07 202.976 692.815 205.394C691.579 207.793 689.908 209.943 687.804 211.844C685.719 213.727 683.227 215.222 680.329 216.329C677.45 217.418 674.192 217.963 670.556 217.963C665.499 217.963 660.977 216.818 656.991 214.53C653.022 212.241 649.885 208.928 647.577 204.591C645.289 200.253 644.145 195.002 644.145 188.838C644.145 182.655 645.307 177.394 647.633 173.057C649.958 168.72 653.115 165.416 657.101 163.146C661.088 160.857 665.573 159.713 670.556 159.713C673.842 159.713 676.887 160.174 679.692 161.097C682.516 162.02 685.017 163.367 687.195 165.139C689.373 166.892 691.145 169.043 692.511 171.59C693.895 174.137 694.781 177.053 695.169 180.338ZM703.543 217.188V174.663H714.977V182.083H715.42C716.196 179.443 717.497 177.45 719.324 176.102C721.151 174.737 723.255 174.054 725.636 174.054C726.227 174.054 726.864 174.091 727.547 174.164C728.23 174.238 728.829 174.34 729.346 174.469V184.934C728.792 184.768 728.026 184.62 727.048 184.491C726.07 184.362 725.175 184.297 724.363 184.297C722.628 184.297 721.077 184.676 719.712 185.432C718.364 186.171 717.294 187.204 716.5 188.533C715.725 189.862 715.337 191.394 715.337 193.129V217.188H703.543ZM744.019 233.134C742.524 233.134 741.122 233.014 739.811 232.774C738.519 232.553 737.449 232.267 736.6 231.916L739.257 223.112C740.642 223.537 741.888 223.767 742.995 223.804C744.121 223.841 745.09 223.583 745.902 223.029C746.733 222.475 747.406 221.534 747.923 220.205L748.615 218.406L733.361 174.663H745.764L754.567 205.892H755.01L763.897 174.663H776.384L759.855 221.783C759.062 224.072 757.982 226.065 756.616 227.763C755.269 229.48 753.562 230.799 751.494 231.722C749.427 232.664 746.936 233.134 744.019 233.134ZM782.419 233.134V174.663H794.047V181.806H794.573C795.09 180.661 795.837 179.499 796.815 178.317C797.812 177.118 799.104 176.121 800.691 175.327C802.297 174.515 804.29 174.109 806.671 174.109C809.772 174.109 812.633 174.921 815.254 176.545C817.875 178.151 819.969 180.578 821.538 183.827C823.107 187.057 823.892 191.108 823.892 195.981C823.892 200.724 823.126 204.729 821.594 207.996C820.08 211.244 818.013 213.708 815.392 215.388C812.79 217.049 809.874 217.88 806.644 217.88C804.355 217.88 802.408 217.501 800.802 216.745C799.215 215.988 797.913 215.037 796.898 213.893C795.883 212.73 795.108 211.558 794.573 210.377H794.213V233.134H782.419ZM793.964 195.925C793.964 198.454 794.314 200.659 795.016 202.542C795.717 204.425 796.732 205.892 798.061 206.944C799.39 207.978 801.005 208.494 802.906 208.494C804.826 208.494 806.45 207.968 807.779 206.916C809.108 205.846 810.113 204.369 810.796 202.487C811.498 200.586 811.848 198.398 811.848 195.925C811.848 193.47 811.507 191.311 810.824 189.447C810.141 187.583 809.135 186.125 807.806 185.073C806.477 184.02 804.844 183.494 802.906 183.494C800.987 183.494 799.362 184.002 798.033 185.017C796.723 186.032 795.717 187.472 795.016 189.336C794.314 191.2 793.964 193.397 793.964 195.925ZM854.373 174.663V183.522H828.764V174.663H854.373ZM834.578 164.475H846.372V204.12C846.372 205.209 846.538 206.058 846.87 206.667C847.203 207.258 847.664 207.673 848.255 207.913C848.864 208.153 849.565 208.273 850.359 208.273C850.912 208.273 851.466 208.227 852.02 208.134C852.574 208.024 852.998 207.941 853.293 207.885L855.148 216.661C854.558 216.846 853.727 217.058 852.657 217.298C851.586 217.557 850.285 217.714 848.753 217.769C845.911 217.88 843.419 217.501 841.278 216.634C839.155 215.766 837.503 214.419 836.322 212.592C835.141 210.765 834.56 208.457 834.578 205.67V164.475ZM880.813 218.018C876.512 218.018 872.793 217.104 869.655 215.277C866.536 213.432 864.128 210.866 862.43 207.581C860.731 204.277 859.882 200.447 859.882 196.091C859.882 191.699 860.731 187.86 862.43 184.574C864.128 181.27 866.536 178.705 869.655 176.878C872.793 175.032 876.512 174.109 880.813 174.109C885.113 174.109 888.823 175.032 891.942 176.878C895.08 178.705 897.498 181.27 899.196 184.574C900.894 187.86 901.743 191.699 901.743 196.091C901.743 200.447 900.894 204.277 899.196 207.581C897.498 210.866 895.08 213.432 891.942 215.277C888.823 217.104 885.113 218.018 880.813 218.018ZM880.868 208.882C882.824 208.882 884.458 208.328 885.768 207.221C887.079 206.095 888.066 204.563 888.731 202.625C889.413 200.687 889.755 198.481 889.755 196.008C889.755 193.535 889.413 191.329 888.731 189.391C888.066 187.453 887.079 185.922 885.768 184.796C884.458 183.67 882.824 183.107 880.868 183.107C878.893 183.107 877.232 183.67 875.885 184.796C874.556 185.922 873.55 187.453 872.867 189.391C872.202 191.329 871.87 193.535 871.87 196.008C871.87 198.481 872.202 200.687 872.867 202.625C873.55 204.563 874.556 206.095 875.885 207.221C877.232 208.328 878.893 208.882 880.868 208.882ZM961.73 184.159V193.517H922.749V184.159H961.73ZM997.465 217.188L981.241 160.488H994.336L1003.72 199.884H1004.19L1014.55 160.488H1025.76L1036.09 199.967H1036.58L1045.97 160.488H1059.06L1042.84 217.188H1031.16L1020.36 180.117H1019.92L1009.15 217.188H997.465ZM1080.07 218.018C1075.7 218.018 1071.93 217.132 1068.78 215.36C1065.64 213.57 1063.22 211.041 1061.52 207.774C1059.82 204.489 1058.97 200.604 1058.97 196.119C1058.97 191.745 1059.82 187.906 1061.52 184.602C1063.22 181.298 1065.61 178.723 1068.69 176.878C1071.79 175.032 1075.43 174.109 1079.6 174.109C1082.41 174.109 1085.02 174.561 1087.44 175.466C1089.87 176.352 1091.99 177.69 1093.8 179.48C1095.63 181.27 1097.05 183.522 1098.07 186.235C1099.08 188.93 1099.59 192.086 1099.59 195.704V198.943H1063.68V191.634H1088.49C1088.49 189.936 1088.12 188.432 1087.38 187.121C1086.64 185.811 1085.62 184.786 1084.31 184.048C1083.01 183.291 1081.51 182.913 1079.79 182.913C1078 182.913 1076.42 183.328 1075.03 184.159C1073.67 184.971 1072.6 186.069 1071.82 187.453C1071.05 188.819 1070.65 190.342 1070.63 192.022V198.971C1070.63 201.075 1071.02 202.893 1071.79 204.425C1072.59 205.956 1073.7 207.138 1075.14 207.968C1076.58 208.799 1078.29 209.214 1080.26 209.214C1081.58 209.214 1082.77 209.03 1083.86 208.66C1084.95 208.291 1085.88 207.738 1086.66 206.999C1087.44 206.261 1088.03 205.357 1088.43 204.286L1099.34 205.006C1098.79 207.627 1097.65 209.915 1095.93 211.872C1094.24 213.81 1092.04 215.323 1089.35 216.412C1086.67 217.483 1083.58 218.018 1080.07 218.018ZM1126.67 218.018C1122.29 218.018 1118.53 217.132 1115.37 215.36C1112.23 213.57 1109.81 211.041 1108.12 207.774C1106.42 204.489 1105.57 200.604 1105.57 196.119C1105.57 191.745 1106.42 187.906 1108.12 184.602C1109.81 181.298 1112.2 178.723 1115.29 176.878C1118.39 175.032 1122.02 174.109 1126.19 174.109C1129 174.109 1131.61 174.561 1134.03 175.466C1136.47 176.352 1138.59 177.69 1140.4 179.48C1142.22 181.27 1143.65 183.522 1144.66 186.235C1145.68 188.93 1146.18 192.086 1146.18 195.704V198.943H1110.28V191.634H1135.08C1135.08 189.936 1134.71 188.432 1133.97 187.121C1133.24 185.811 1132.21 184.786 1130.9 184.048C1129.61 183.291 1128.1 182.913 1126.39 182.913C1124.6 182.913 1123.01 183.328 1121.63 184.159C1120.26 184.971 1119.19 186.069 1118.41 187.453C1117.64 188.819 1117.24 190.342 1117.22 192.022V198.971C1117.22 201.075 1117.61 202.893 1118.39 204.425C1119.18 205.956 1120.3 207.138 1121.74 207.968C1123.18 208.799 1124.88 209.214 1126.86 209.214C1128.17 209.214 1129.37 209.03 1130.46 208.66C1131.55 208.291 1132.48 207.738 1133.25 206.999C1134.03 206.261 1134.62 205.357 1135.03 204.286L1145.93 205.006C1145.38 207.627 1144.25 209.915 1142.53 211.872C1140.83 213.81 1138.63 215.323 1135.94 216.412C1133.26 217.483 1130.17 218.018 1126.67 218.018ZM1164.57 204.951L1164.59 190.803H1166.31L1179.93 174.663H1193.47L1175.17 196.036H1172.37L1164.57 204.951ZM1153.88 217.188V160.488H1165.67V217.188H1153.88ZM1180.46 217.188L1167.94 198.666L1175.81 190.333L1194.27 217.188H1180.46ZM1211.05 160.488V217.188H1199.26V160.488H1211.05ZM1227.78 233.134C1226.28 233.134 1224.88 233.014 1223.57 232.774C1222.28 232.553 1221.21 232.267 1220.36 231.916L1223.02 223.112C1224.4 223.537 1225.65 223.767 1226.75 223.804C1227.88 223.841 1228.85 223.583 1229.66 223.029C1230.49 222.475 1231.17 221.534 1231.68 220.205L1232.37 218.406L1217.12 174.663H1229.52L1238.33 205.892H1238.77L1247.66 174.663H1260.14L1243.62 221.783C1242.82 224.072 1241.74 226.065 1240.38 227.763C1239.03 229.48 1237.32 230.799 1235.25 231.722C1233.19 232.664 1230.7 233.134 1227.78 233.134ZM1284.44 217.188V160.488H1296.43V183.882H1320.77V160.488H1332.73V217.188H1320.77V193.766H1296.43V217.188H1284.44ZM1342.39 217.188V174.663H1354.18V217.188H1342.39ZM1348.31 169.181C1346.56 169.181 1345.06 168.6 1343.8 167.437C1342.56 166.256 1341.95 164.844 1341.95 163.201C1341.95 161.577 1342.56 160.183 1343.8 159.021C1345.06 157.839 1346.56 157.249 1348.31 157.249C1350.07 157.249 1351.56 157.839 1352.8 159.021C1354.05 160.183 1354.68 161.577 1354.68 163.201C1354.68 164.844 1354.05 166.256 1352.8 167.437C1351.56 168.6 1350.07 169.181 1348.31 169.181ZM1382.79 234.02C1378.97 234.02 1375.69 233.494 1372.96 232.442C1370.25 231.409 1368.09 229.997 1366.48 228.206C1364.88 226.416 1363.83 224.404 1363.35 222.171L1374.26 220.704C1374.59 221.553 1375.12 222.346 1375.84 223.084C1376.56 223.823 1377.51 224.413 1378.69 224.856C1379.89 225.318 1381.35 225.548 1383.07 225.548C1385.63 225.548 1387.74 224.921 1389.41 223.666C1391.09 222.429 1391.93 220.353 1391.93 217.437V209.657H1391.43C1390.91 210.838 1390.14 211.955 1389.1 213.007C1388.07 214.059 1386.74 214.917 1385.11 215.582C1383.49 216.246 1381.55 216.578 1379.3 216.578C1376.11 216.578 1373.2 215.84 1370.58 214.364C1367.98 212.869 1365.9 210.589 1364.35 207.525C1362.82 204.443 1362.05 200.549 1362.05 195.842C1362.05 191.025 1362.84 187.001 1364.41 183.771C1365.97 180.541 1368.06 178.123 1370.66 176.518C1373.28 174.912 1376.15 174.109 1379.27 174.109C1381.65 174.109 1383.65 174.515 1385.25 175.327C1386.86 176.121 1388.15 177.118 1389.13 178.317C1390.13 179.499 1390.89 180.661 1391.43 181.806H1391.87V174.663H1403.58V217.603C1403.58 221.22 1402.69 224.247 1400.92 226.684C1399.15 229.12 1396.7 230.947 1393.56 232.165C1390.44 233.402 1386.85 234.02 1382.79 234.02ZM1383.04 207.719C1384.94 207.719 1386.55 207.248 1387.86 206.307C1389.18 205.347 1390.2 203.982 1390.9 202.21C1391.62 200.419 1391.98 198.278 1391.98 195.787C1391.98 193.295 1391.63 191.136 1390.93 189.308C1390.23 187.463 1389.21 186.032 1387.88 185.017C1386.55 184.002 1384.94 183.494 1383.04 183.494C1381.1 183.494 1379.47 184.02 1378.14 185.073C1376.81 186.106 1375.8 187.546 1375.12 189.391C1374.44 191.237 1374.1 193.369 1374.1 195.787C1374.1 198.242 1374.44 200.364 1375.12 202.154C1375.82 203.926 1376.83 205.301 1378.14 206.279C1379.47 207.239 1381.1 207.719 1383.04 207.719ZM1424.76 192.603V217.188H1412.97V160.488H1424.43V182.166H1424.93C1425.89 179.655 1427.44 177.69 1429.58 176.269C1431.72 174.829 1434.4 174.109 1437.63 174.109C1440.59 174.109 1443.16 174.755 1445.36 176.047C1447.57 177.321 1449.29 179.157 1450.51 181.556C1451.74 183.937 1452.35 186.789 1452.33 190.111V217.188H1440.54V192.215C1440.56 189.594 1439.89 187.555 1438.55 186.097C1437.22 184.639 1435.35 183.91 1432.95 183.91C1431.35 183.91 1429.93 184.251 1428.69 184.934C1427.47 185.617 1426.51 186.614 1425.81 187.924C1425.13 189.216 1424.78 190.776 1424.76 192.603ZM1473.41 160.488V217.188H1461.62V160.488H1473.41ZM1482.86 217.188V174.663H1494.65V217.188H1482.86ZM1488.78 169.181C1487.03 169.181 1485.52 168.6 1484.27 167.437C1483.03 166.256 1482.41 164.844 1482.41 163.201C1482.41 161.577 1483.03 160.183 1484.27 159.021C1485.52 157.839 1487.03 157.249 1488.78 157.249C1490.54 157.249 1492.03 157.839 1493.27 159.021C1494.52 160.183 1495.15 161.577 1495.15 163.201C1495.15 164.844 1494.52 166.256 1493.27 167.437C1492.03 168.6 1490.54 169.181 1488.78 169.181ZM1523.26 234.02C1519.44 234.02 1516.16 233.494 1513.43 232.442C1510.72 231.409 1508.56 229.997 1506.95 228.206C1505.35 226.416 1504.3 224.404 1503.82 222.171L1514.73 220.704C1515.06 221.553 1515.59 222.346 1516.31 223.084C1517.03 223.823 1517.98 224.413 1519.16 224.856C1520.36 225.318 1521.82 225.548 1523.53 225.548C1526.1 225.548 1528.21 224.921 1529.87 223.666C1531.55 222.429 1532.39 220.353 1532.39 217.437V209.657H1531.9C1531.38 210.838 1530.6 211.955 1529.57 213.007C1528.54 214.059 1527.21 214.917 1525.58 215.582C1523.96 216.246 1522.02 216.578 1519.77 216.578C1516.58 216.578 1513.67 215.84 1511.05 214.364C1508.45 212.869 1506.37 210.589 1504.82 207.525C1503.29 204.443 1502.52 200.549 1502.52 195.842C1502.52 191.025 1503.31 187.001 1504.87 183.771C1506.44 180.541 1508.53 178.123 1511.13 176.518C1513.75 174.912 1516.62 174.109 1519.74 174.109C1522.12 174.109 1524.12 174.515 1525.72 175.327C1527.33 176.121 1528.62 177.118 1529.6 178.317C1530.59 179.499 1531.36 180.661 1531.9 181.806H1532.34V174.663H1544.05V217.603C1544.05 221.22 1543.16 224.247 1541.39 226.684C1539.62 229.12 1537.16 230.947 1534.03 232.165C1530.91 233.402 1527.32 234.02 1523.26 234.02ZM1523.51 207.719C1525.41 207.719 1527.01 207.248 1528.32 206.307C1529.65 205.347 1530.67 203.982 1531.37 202.21C1532.09 200.419 1532.45 198.278 1532.45 195.787C1532.45 193.295 1532.1 191.136 1531.4 189.308C1530.7 187.463 1529.68 186.032 1528.35 185.017C1527.02 184.002 1525.41 183.494 1523.51 183.494C1521.57 183.494 1519.94 184.02 1518.61 185.073C1517.28 186.106 1516.27 187.546 1515.59 189.391C1514.91 191.237 1514.56 193.369 1514.56 195.787C1514.56 198.242 1514.91 200.364 1515.59 202.154C1516.29 203.926 1517.3 205.301 1518.61 206.279C1519.94 207.239 1521.57 207.719 1523.51 207.719ZM1565.23 192.603V217.188H1553.43V160.488H1564.9V182.166H1565.39C1566.35 179.655 1567.9 177.69 1570.05 176.269C1572.19 174.829 1574.87 174.109 1578.1 174.109C1581.06 174.109 1583.63 174.755 1585.83 176.047C1588.04 177.321 1589.76 179.157 1590.98 181.556C1592.21 183.937 1592.82 186.789 1592.8 190.111V217.188H1581.01V192.215C1581.03 189.594 1580.36 187.555 1579.02 186.097C1577.69 184.639 1575.82 183.91 1573.42 183.91C1571.82 183.91 1570.4 184.251 1569.16 184.934C1567.94 185.617 1566.98 186.614 1566.28 187.924C1565.6 189.216 1565.25 190.776 1565.23 192.603ZM1624.7 174.663V183.522H1599.09V174.663H1624.7ZM1604.91 164.475H1616.7V204.12C1616.7 205.209 1616.87 206.058 1617.2 206.667C1617.53 207.258 1617.99 207.673 1618.59 207.913C1619.19 208.153 1619.9 208.273 1620.69 208.273C1621.24 208.273 1621.8 208.227 1622.35 208.134C1622.9 208.024 1623.33 207.941 1623.62 207.885L1625.48 216.661C1624.89 216.846 1624.06 217.058 1622.99 217.298C1621.92 217.557 1620.62 217.714 1619.08 217.769C1616.24 217.88 1613.75 217.501 1611.61 216.634C1609.49 215.766 1607.83 214.419 1606.65 212.592C1605.47 210.765 1604.89 208.457 1604.91 205.67V164.475ZM1667.24 186.789L1656.44 187.453C1656.25 186.531 1655.86 185.7 1655.25 184.962C1654.64 184.205 1653.84 183.605 1652.84 183.162C1651.86 182.701 1650.69 182.47 1649.32 182.47C1647.5 182.47 1645.95 182.858 1644.7 183.633C1643.44 184.39 1642.82 185.405 1642.82 186.678C1642.82 187.693 1643.22 188.552 1644.03 189.253C1644.85 189.954 1646.24 190.517 1648.22 190.942L1655.91 192.492C1660.05 193.341 1663.13 194.707 1665.16 196.59C1667.19 198.472 1668.2 200.945 1668.2 204.009C1668.2 206.796 1667.38 209.242 1665.74 211.346C1664.12 213.45 1661.88 215.093 1659.04 216.274C1656.22 217.437 1652.96 218.018 1649.27 218.018C1643.64 218.018 1639.15 216.846 1635.81 214.502C1632.49 212.14 1630.54 208.928 1629.97 204.868L1641.57 204.258C1641.92 205.975 1642.77 207.285 1644.12 208.19C1645.47 209.076 1647.19 209.519 1649.3 209.519C1651.36 209.519 1653.02 209.122 1654.28 208.328C1655.55 207.516 1656.2 206.473 1656.22 205.2C1656.2 204.129 1655.75 203.253 1654.86 202.57C1653.97 201.868 1652.61 201.333 1650.76 200.964L1643.4 199.497C1639.25 198.666 1636.15 197.226 1634.12 195.178C1632.11 193.129 1631.11 190.517 1631.11 187.343C1631.11 184.611 1631.84 182.258 1633.32 180.283C1634.82 178.308 1636.91 176.785 1639.61 175.715C1642.32 174.644 1645.49 174.109 1649.13 174.109C1654.5 174.109 1658.73 175.244 1661.81 177.514C1664.91 179.785 1666.72 182.876 1667.24 186.789ZM1705.88 160.488V217.188H1693.9V160.488H1705.88ZM1727.32 192.603V217.188H1715.53V174.663H1726.77V182.166H1727.26C1728.21 179.692 1729.78 177.736 1732 176.296C1734.21 174.838 1736.9 174.109 1740.05 174.109C1743.01 174.109 1745.58 174.755 1747.78 176.047C1749.98 177.339 1751.68 179.185 1752.9 181.584C1754.12 183.965 1754.73 186.807 1754.73 190.111V217.188H1742.93V192.215C1742.95 189.613 1742.29 187.583 1740.94 186.125C1739.59 184.648 1737.74 183.91 1735.38 183.91C1733.79 183.91 1732.39 184.251 1731.17 184.934C1729.97 185.617 1729.03 186.614 1728.34 187.924C1727.68 189.216 1727.34 190.776 1727.32 192.603ZM1799.4 186.789L1788.61 187.453C1788.42 186.531 1788.03 185.7 1787.42 184.962C1786.81 184.205 1786.01 183.605 1785.01 183.162C1784.03 182.701 1782.86 182.47 1781.49 182.47C1779.67 182.47 1778.12 182.858 1776.87 183.633C1775.61 184.39 1774.99 185.405 1774.99 186.678C1774.99 187.693 1775.39 188.552 1776.2 189.253C1777.02 189.954 1778.41 190.517 1780.39 190.942L1788.08 192.492C1792.22 193.341 1795.3 194.707 1797.33 196.59C1799.36 198.472 1800.37 200.945 1800.37 204.009C1800.37 206.796 1799.55 209.242 1797.91 211.346C1796.29 213.45 1794.05 215.093 1791.21 216.274C1788.39 217.437 1785.13 218.018 1781.44 218.018C1775.81 218.018 1771.32 216.846 1767.98 214.502C1764.66 212.14 1762.71 208.928 1762.14 204.868L1773.74 204.258C1774.09 205.975 1774.94 207.285 1776.29 208.19C1777.63 209.076 1779.36 209.519 1781.46 209.519C1783.53 209.519 1785.19 209.122 1786.45 208.328C1787.72 207.516 1788.37 206.473 1788.39 205.2C1788.37 204.129 1787.92 203.253 1787.03 202.57C1786.14 201.868 1784.78 201.333 1782.93 200.964L1775.57 199.497C1771.42 198.666 1768.32 197.226 1766.29 195.178C1764.28 193.129 1763.28 190.517 1763.28 187.343C1763.28 184.611 1764.01 182.258 1765.49 180.283C1766.99 178.308 1769.08 176.785 1771.77 175.715C1774.49 174.644 1777.66 174.109 1781.3 174.109C1786.67 174.109 1790.9 175.244 1793.98 177.514C1797.08 179.785 1798.89 182.876 1799.4 186.789ZM1807.8 217.188V174.663H1819.59V217.188H1807.8ZM1813.73 169.181C1811.97 169.181 1810.47 168.6 1809.21 167.437C1807.98 166.256 1807.36 164.844 1807.36 163.201C1807.36 161.577 1807.98 160.183 1809.21 159.021C1810.47 157.839 1811.97 157.249 1813.73 157.249C1815.48 157.249 1816.97 157.839 1818.21 159.021C1819.47 160.183 1820.09 161.577 1820.09 163.201C1820.09 164.844 1819.47 166.256 1818.21 167.437C1816.97 168.6 1815.48 169.181 1813.73 169.181ZM1844.71 217.88C1841.48 217.88 1838.56 217.049 1835.94 215.388C1833.33 213.708 1831.27 211.244 1829.73 207.996C1828.22 204.729 1827.46 200.724 1827.46 195.981C1827.46 191.108 1828.25 187.057 1829.82 183.827C1831.39 180.578 1833.47 178.151 1836.07 176.545C1838.7 174.921 1841.57 174.109 1844.68 174.109C1847.07 174.109 1849.05 174.515 1850.64 175.327C1852.24 176.121 1853.53 177.118 1854.51 178.317C1855.51 179.499 1856.27 180.661 1856.78 181.806H1857.14V160.488H1868.91V217.188H1857.28V210.377H1856.78C1856.23 211.558 1855.44 212.73 1854.43 213.893C1853.43 215.037 1852.13 215.988 1850.53 216.745C1848.94 217.501 1847 217.88 1844.71 217.88ZM1848.45 208.494C1850.35 208.494 1851.96 207.978 1853.27 206.944C1854.6 205.892 1855.61 204.425 1856.31 202.542C1857.03 200.659 1857.39 198.454 1857.39 195.925C1857.39 193.397 1857.04 191.2 1856.34 189.336C1855.64 187.472 1854.62 186.032 1853.29 185.017C1851.97 184.002 1850.35 183.494 1848.45 183.494C1846.51 183.494 1844.88 184.02 1843.55 185.073C1842.22 186.125 1841.21 187.583 1840.53 189.447C1839.85 191.311 1839.51 193.47 1839.51 195.925C1839.51 198.398 1839.85 200.586 1840.53 202.487C1841.23 204.369 1842.24 205.846 1843.55 206.916C1844.88 207.968 1846.51 208.494 1848.45 208.494ZM1897.99 218.018C1893.61 218.018 1889.85 217.132 1886.69 215.36C1883.55 213.57 1881.13 211.041 1879.44 207.774C1877.74 204.489 1876.89 200.604 1876.89 196.119C1876.89 191.745 1877.74 187.906 1879.44 184.602C1881.13 181.298 1883.52 178.723 1886.61 176.878C1889.71 175.032 1893.34 174.109 1897.51 174.109C1900.32 174.109 1902.93 174.561 1905.35 175.466C1907.79 176.352 1909.91 177.69 1911.72 179.48C1913.54 181.27 1914.97 183.522 1915.98 186.235C1917 188.93 1917.5 192.086 1917.5 195.704V198.943H1881.6V191.634H1906.4C1906.4 189.936 1906.03 188.432 1905.29 187.121C1904.56 185.811 1903.53 184.786 1902.22 184.048C1900.93 183.291 1899.43 182.913 1897.71 182.913C1895.92 182.913 1894.33 183.328 1892.95 184.159C1891.58 184.971 1890.51 186.069 1889.74 187.453C1888.96 188.819 1888.56 190.342 1888.54 192.022V198.971C1888.54 201.075 1888.93 202.893 1889.71 204.425C1890.5 205.956 1891.62 207.138 1893.06 207.968C1894.5 208.799 1896.2 209.214 1898.18 209.214C1899.49 209.214 1900.69 209.03 1901.78 208.66C1902.87 208.291 1903.8 207.738 1904.57 206.999C1905.35 206.261 1905.94 205.357 1906.35 204.286L1917.25 205.006C1916.7 207.627 1915.57 209.915 1913.85 211.872C1912.15 213.81 1909.95 215.323 1907.26 216.412C1904.58 217.483 1901.49 218.018 1897.99 218.018ZM1939.29 160.488L1938.21 200.189H1928.08L1926.97 160.488H1939.29ZM1933.15 217.907C1931.32 217.907 1929.75 217.261 1928.44 215.969C1927.13 214.659 1926.48 213.09 1926.5 211.263C1926.48 209.454 1927.13 207.904 1928.44 206.612C1929.75 205.32 1931.32 204.674 1933.15 204.674C1934.9 204.674 1936.44 205.32 1937.77 206.612C1939.1 207.904 1939.77 209.454 1939.79 211.263C1939.77 212.481 1939.45 213.598 1938.82 214.613C1938.21 215.609 1937.41 216.412 1936.41 217.021C1935.42 217.612 1934.33 217.907 1933.15 217.907Z" fill="white"/>
<defs>
<clipPath id="clip0_11578_27856">
<rect width="628.069" height="90.5422" fill="white" transform="translate(983.918)"/>
</clipPath>
</defs>
</svg>
